<svg xmlns="http://www.w3.org/2000/svg" width="378" height="468" viewBox="0 0 378 468">
<rect width="378" height="468" fill="white"/>
<rect x="24" y="24" width="330" height="330" fill="white" stroke="#CCCCCC" stroke-width="1" rx="4"/>
<rect x="64" y="64" width="10" height="10" fill="#1A3C2E"/>
<rect x="74" y="64" width="10" height="10" fill="#1A3C2E"/>
<rect x="84" y="64" width="10" height="10" fill="#1A3C2E"/>
<rect x="94" y="64" width="10" height="10" fill="#1A3C2E"/>
<rect x="104" y="64" width="10" height="10" fill="#1A3C2E"/>
<rect x="114" y="64" width="10" height="10" fill="#1A3C2E"/>
<rect x="124" y="64" width="10" height="10" fill="#1A3C2E"/>
<rect x="144" y="64" width="10" height="10" fill="#1A3C2E"/>
<rect x="154" y="64" width="10" height="10" fill="#1A3C2E"/>
<rect x="204" y="64" width="10" height="10" fill="#1A3C2E"/>
<rect x="214" y="64" width="10" height="10" fill="#1A3C2E"/>
<rect x="244" y="64" width="10" height="10" fill="#1A3C2E"/>
<rect x="254" y="64" width="10" height="10" fill="#1A3C2E"/>
<rect x="264" y="64" width="10" height="10" fill="#1A3C2E"/>
<rect x="274" y="64" width="10" height="10" fill="#1A3C2E"/>
<rect x="284" y="64" width="10" height="10" fill="#1A3C2E"/>
<rect x="294" y="64" width="10" height="10" fill="#1A3C2E"/>
<rect x="304" y="64" width="10" height="10" fill="#1A3C2E"/>
<rect x="64" y="74" width="10" height="10" fill="#1A3C2E"/>
<rect x="124" y="74" width="10" height="10" fill="#1A3C2E"/>
<rect x="144" y="74" width="10" height="10" fill="#1A3C2E"/>
<rect x="154" y="74" width="10" height="10" fill="#1A3C2E"/>
<rect x="174" y="74" width="10" height="10" fill="#1A3C2E"/>
<rect x="184" y="74" width="10" height="10" fill="#1A3C2E"/>
<rect x="194" y="74" width="10" height="10" fill="#1A3C2E"/>
<rect x="204" y="74" width="10" height="10" fill="#1A3C2E"/>
<rect x="244" y="74" width="10" height="10" fill="#1A3C2E"/>
<rect x="304" y="74" width="10" height="10" fill="#1A3C2E"/>
<rect x="64" y="84" width="10" height="10" fill="#1A3C2E"/>
<rect x="84" y="84" width="10" height="10" fill="#1A3C2E"/>
<rect x="94" y="84" width="10" height="10" fill="#1A3C2E"/>
<rect x="104" y="84" width="10" height="10" fill="#1A3C2E"/>
<rect x="124" y="84" width="10" height="10" fill="#1A3C2E"/>
<rect x="144" y="84" width="10" height="10" fill="#1A3C2E"/>
<rect x="154" y="84" width="10" height="10" fill="#1A3C2E"/>
<rect x="164" y="84" width="10" height="10" fill="#1A3C2E"/>
<rect x="184" y="84" width="10" height="10" fill="#1A3C2E"/>
<rect x="194" y="84" width="10" height="10" fill="#1A3C2E"/>
<rect x="204" y="84" width="10" height="10" fill="#1A3C2E"/>
<rect x="214" y="84" width="10" height="10" fill="#1A3C2E"/>
<rect x="244" y="84" width="10" height="10" fill="#1A3C2E"/>
<rect x="264" y="84" width="10" height="10" fill="#1A3C2E"/>
<rect x="274" y="84" width="10" height="10" fill="#1A3C2E"/>
<rect x="284" y="84" width="10" height="10" fill="#1A3C2E"/>
<rect x="304" y="84" width="10" height="10" fill="#1A3C2E"/>
<rect x="64" y="94" width="10" height="10" fill="#1A3C2E"/>
<rect x="84" y="94" width="10" height="10" fill="#1A3C2E"/>
<rect x="94" y="94" width="10" height="10" fill="#1A3C2E"/>
<rect x="104" y="94" width="10" height="10" fill="#1A3C2E"/>
<rect x="124" y="94" width="10" height="10" fill="#1A3C2E"/>
<rect x="154" y="94" width="10" height="10" fill="#1A3C2E"/>
<rect x="164" y="94" width="10" height="10" fill="#1A3C2E"/>
<rect x="174" y="94" width="10" height="10" fill="#1A3C2E"/>
<rect x="184" y="94" width="10" height="10" fill="#1A3C2E"/>
<rect x="204" y="94" width="10" height="10" fill="#1A3C2E"/>
<rect x="224" y="94" width="10" height="10" fill="#1A3C2E"/>
<rect x="244" y="94" width="10" height="10" fill="#1A3C2E"/>
<rect x="264" y="94" width="10" height="10" fill="#1A3C2E"/>
<rect x="274" y="94" width="10" height="10" fill="#1A3C2E"/>
<rect x="284" y="94" width="10" height="10" fill="#1A3C2E"/>
<rect x="304" y="94" width="10" height="10" fill="#1A3C2E"/>
<rect x="64" y="104" width="10" height="10" fill="#1A3C2E"/>
<rect x="84" y="104" width="10" height="10" fill="#1A3C2E"/>
<rect x="94" y="104" width="10" height="10" fill="#1A3C2E"/>
<rect x="104" y="104" width="10" height="10" fill="#1A3C2E"/>
<rect x="124" y="104" width="10" height="10" fill="#1A3C2E"/>
<rect x="144" y="104" width="10" height="10" fill="#1A3C2E"/>
<rect x="164" y="104" width="10" height="10" fill="#1A3C2E"/>
<rect x="184" y="104" width="10" height="10" fill="#1A3C2E"/>
<rect x="204" y="104" width="10" height="10" fill="#1A3C2E"/>
<rect x="244" y="104" width="10" height="10" fill="#1A3C2E"/>
<rect x="264" y="104" width="10" height="10" fill="#1A3C2E"/>
<rect x="274" y="104" width="10" height="10" fill="#1A3C2E"/>
<rect x="284" y="104" width="10" height="10" fill="#1A3C2E"/>
<rect x="304" y="104" width="10" height="10" fill="#1A3C2E"/>
<rect x="64" y="114" width="10" height="10" fill="#1A3C2E"/>
<rect x="124" y="114" width="10" height="10" fill="#1A3C2E"/>
<rect x="144" y="114" width="10" height="10" fill="#1A3C2E"/>
<rect x="184" y="114" width="10" height="10" fill="#1A3C2E"/>
<rect x="194" y="114" width="10" height="10" fill="#1A3C2E"/>
<rect x="204" y="114" width="10" height="10" fill="#1A3C2E"/>
<rect x="244" y="114" width="10" height="10" fill="#1A3C2E"/>
<rect x="304" y="114" width="10" height="10" fill="#1A3C2E"/>
<rect x="64" y="124" width="10" height="10" fill="#1A3C2E"/>
<rect x="74" y="124" width="10" height="10" fill="#1A3C2E"/>
<rect x="84" y="124" width="10" height="10" fill="#1A3C2E"/>
<rect x="94" y="124" width="10" height="10" fill="#1A3C2E"/>
<rect x="104" y="124" width="10" height="10" fill="#1A3C2E"/>
<rect x="114" y="124" width="10" height="10" fill="#1A3C2E"/>
<rect x="124" y="124" width="10" height="10" fill="#1A3C2E"/>
<rect x="144" y="124" width="10" height="10" fill="#1A3C2E"/>
<rect x="164" y="124" width="10" height="10" fill="#1A3C2E"/>
<rect x="184" y="124" width="10" height="10" fill="#1A3C2E"/>
<rect x="204" y="124" width="10" height="10" fill="#1A3C2E"/>
<rect x="224" y="124" width="10" height="10" fill="#1A3C2E"/>
<rect x="244" y="124" width="10" height="10" fill="#1A3C2E"/>
<rect x="254" y="124" width="10" height="10" fill="#1A3C2E"/>
<rect x="264" y="124" width="10" height="10" fill="#1A3C2E"/>
<rect x="274" y="124" width="10" height="10" fill="#1A3C2E"/>
<rect x="284" y="124" width="10" height="10" fill="#1A3C2E"/>
<rect x="294" y="124" width="10" height="10" fill="#1A3C2E"/>
<rect x="304" y="124" width="10" height="10" fill="#1A3C2E"/>
<rect x="144" y="134" width="10" height="10" fill="#1A3C2E"/>
<rect x="154" y="134" width="10" height="10" fill="#1A3C2E"/>
<rect x="164" y="134" width="10" height="10" fill="#1A3C2E"/>
<rect x="174" y="134" width="10" height="10" fill="#1A3C2E"/>
<rect x="184" y="134" width="10" height="10" fill="#1A3C2E"/>
<rect x="194" y="134" width="10" height="10" fill="#1A3C2E"/>
<rect x="224" y="134" width="10" height="10" fill="#1A3C2E"/>
<rect x="84" y="144" width="10" height="10" fill="#1A3C2E"/>
<rect x="124" y="144" width="10" height="10" fill="#1A3C2E"/>
<rect x="134" y="144" width="10" height="10" fill="#1A3C2E"/>
<rect x="144" y="144" width="10" height="10" fill="#1A3C2E"/>
<rect x="154" y="144" width="10" height="10" fill="#1A3C2E"/>
<rect x="164" y="144" width="10" height="10" fill="#1A3C2E"/>
<rect x="184" y="144" width="10" height="10" fill="#1A3C2E"/>
<rect x="224" y="144" width="10" height="10" fill="#1A3C2E"/>
<rect x="234" y="144" width="10" height="10" fill="#1A3C2E"/>
<rect x="244" y="144" width="10" height="10" fill="#1A3C2E"/>
<rect x="254" y="144" width="10" height="10" fill="#1A3C2E"/>
<rect x="264" y="144" width="10" height="10" fill="#1A3C2E"/>
<rect x="284" y="144" width="10" height="10" fill="#1A3C2E"/>
<rect x="294" y="144" width="10" height="10" fill="#1A3C2E"/>
<rect x="304" y="144" width="10" height="10" fill="#1A3C2E"/>
<rect x="74" y="154" width="10" height="10" fill="#1A3C2E"/>
<rect x="94" y="154" width="10" height="10" fill="#1A3C2E"/>
<rect x="114" y="154" width="10" height="10" fill="#1A3C2E"/>
<rect x="134" y="154" width="10" height="10" fill="#1A3C2E"/>
<rect x="164" y="154" width="10" height="10" fill="#1A3C2E"/>
<rect x="184" y="154" width="10" height="10" fill="#1A3C2E"/>
<rect x="204" y="154" width="10" height="10" fill="#1A3C2E"/>
<rect x="214" y="154" width="10" height="10" fill="#1A3C2E"/>
<rect x="224" y="154" width="10" height="10" fill="#1A3C2E"/>
<rect x="304" y="154" width="10" height="10" fill="#1A3C2E"/>
<rect x="64" y="164" width="10" height="10" fill="#1A3C2E"/>
<rect x="84" y="164" width="10" height="10" fill="#1A3C2E"/>
<rect x="104" y="164" width="10" height="10" fill="#1A3C2E"/>
<rect x="124" y="164" width="10" height="10" fill="#1A3C2E"/>
<rect x="144" y="164" width="10" height="10" fill="#1A3C2E"/>
<rect x="154" y="164" width="10" height="10" fill="#1A3C2E"/>
<rect x="174" y="164" width="10" height="10" fill="#1A3C2E"/>
<rect x="194" y="164" width="10" height="10" fill="#1A3C2E"/>
<rect x="204" y="164" width="10" height="10" fill="#1A3C2E"/>
<rect x="214" y="164" width="10" height="10" fill="#1A3C2E"/>
<rect x="224" y="164" width="10" height="10" fill="#1A3C2E"/>
<rect x="244" y="164" width="10" height="10" fill="#1A3C2E"/>
<rect x="284" y="164" width="10" height="10" fill="#1A3C2E"/>
<rect x="294" y="164" width="10" height="10" fill="#1A3C2E"/>
<rect x="304" y="164" width="10" height="10" fill="#1A3C2E"/>
<rect x="74" y="174" width="10" height="10" fill="#1A3C2E"/>
<rect x="94" y="174" width="10" height="10" fill="#1A3C2E"/>
<rect x="114" y="174" width="10" height="10" fill="#1A3C2E"/>
<rect x="134" y="174" width="10" height="10" fill="#1A3C2E"/>
<rect x="154" y="174" width="10" height="10" fill="#1A3C2E"/>
<rect x="174" y="174" width="10" height="10" fill="#1A3C2E"/>
<rect x="224" y="174" width="10" height="10" fill="#1A3C2E"/>
<rect x="234" y="174" width="10" height="10" fill="#1A3C2E"/>
<rect x="244" y="174" width="10" height="10" fill="#1A3C2E"/>
<rect x="254" y="174" width="10" height="10" fill="#1A3C2E"/>
<rect x="294" y="174" width="10" height="10" fill="#1A3C2E"/>
<rect x="64" y="184" width="10" height="10" fill="#1A3C2E"/>
<rect x="84" y="184" width="10" height="10" fill="#1A3C2E"/>
<rect x="104" y="184" width="10" height="10" fill="#1A3C2E"/>
<rect x="124" y="184" width="10" height="10" fill="#1A3C2E"/>
<rect x="144" y="184" width="10" height="10" fill="#1A3C2E"/>
<rect x="164" y="184" width="10" height="10" fill="#1A3C2E"/>
<rect x="194" y="184" width="10" height="10" fill="#1A3C2E"/>
<rect x="214" y="184" width="10" height="10" fill="#1A3C2E"/>
<rect x="234" y="184" width="10" height="10" fill="#1A3C2E"/>
<rect x="274" y="184" width="10" height="10" fill="#1A3C2E"/>
<rect x="294" y="184" width="10" height="10" fill="#1A3C2E"/>
<rect x="304" y="184" width="10" height="10" fill="#1A3C2E"/>
<rect x="74" y="194" width="10" height="10" fill="#1A3C2E"/>
<rect x="94" y="194" width="10" height="10" fill="#1A3C2E"/>
<rect x="114" y="194" width="10" height="10" fill="#1A3C2E"/>
<rect x="134" y="194" width="10" height="10" fill="#1A3C2E"/>
<rect x="154" y="194" width="10" height="10" fill="#1A3C2E"/>
<rect x="174" y="194" width="10" height="10" fill="#1A3C2E"/>
<rect x="184" y="194" width="10" height="10" fill="#1A3C2E"/>
<rect x="194" y="194" width="10" height="10" fill="#1A3C2E"/>
<rect x="214" y="194" width="10" height="10" fill="#1A3C2E"/>
<rect x="224" y="194" width="10" height="10" fill="#1A3C2E"/>
<rect x="234" y="194" width="10" height="10" fill="#1A3C2E"/>
<rect x="244" y="194" width="10" height="10" fill="#1A3C2E"/>
<rect x="274" y="194" width="10" height="10" fill="#1A3C2E"/>
<rect x="304" y="194" width="10" height="10" fill="#1A3C2E"/>
<rect x="64" y="204" width="10" height="10" fill="#1A3C2E"/>
<rect x="84" y="204" width="10" height="10" fill="#1A3C2E"/>
<rect x="104" y="204" width="10" height="10" fill="#1A3C2E"/>
<rect x="124" y="204" width="10" height="10" fill="#1A3C2E"/>
<rect x="144" y="204" width="10" height="10" fill="#1A3C2E"/>
<rect x="164" y="204" width="10" height="10" fill="#1A3C2E"/>
<rect x="184" y="204" width="10" height="10" fill="#1A3C2E"/>
<rect x="224" y="204" width="10" height="10" fill="#1A3C2E"/>
<rect x="254" y="204" width="10" height="10" fill="#1A3C2E"/>
<rect x="284" y="204" width="10" height="10" fill="#1A3C2E"/>
<rect x="294" y="204" width="10" height="10" fill="#1A3C2E"/>
<rect x="304" y="204" width="10" height="10" fill="#1A3C2E"/>
<rect x="74" y="214" width="10" height="10" fill="#1A3C2E"/>
<rect x="94" y="214" width="10" height="10" fill="#1A3C2E"/>
<rect x="114" y="214" width="10" height="10" fill="#1A3C2E"/>
<rect x="134" y="214" width="10" height="10" fill="#1A3C2E"/>
<rect x="154" y="214" width="10" height="10" fill="#1A3C2E"/>
<rect x="174" y="214" width="10" height="10" fill="#1A3C2E"/>
<rect x="234" y="214" width="10" height="10" fill="#1A3C2E"/>
<rect x="264" y="214" width="10" height="10" fill="#1A3C2E"/>
<rect x="294" y="214" width="10" height="10" fill="#1A3C2E"/>
<rect x="64" y="224" width="10" height="10" fill="#1A3C2E"/>
<rect x="84" y="224" width="10" height="10" fill="#1A3C2E"/>
<rect x="104" y="224" width="10" height="10" fill="#1A3C2E"/>
<rect x="124" y="224" width="10" height="10" fill="#1A3C2E"/>
<rect x="144" y="224" width="10" height="10" fill="#1A3C2E"/>
<rect x="164" y="224" width="10" height="10" fill="#1A3C2E"/>
<rect x="224" y="224" width="10" height="10" fill="#1A3C2E"/>
<rect x="234" y="224" width="10" height="10" fill="#1A3C2E"/>
<rect x="244" y="224" width="10" height="10" fill="#1A3C2E"/>
<rect x="254" y="224" width="10" height="10" fill="#1A3C2E"/>
<rect x="264" y="224" width="10" height="10" fill="#1A3C2E"/>
<rect x="274" y="224" width="10" height="10" fill="#1A3C2E"/>
<rect x="144" y="234" width="10" height="10" fill="#1A3C2E"/>
<rect x="154" y="234" width="10" height="10" fill="#1A3C2E"/>
<rect x="224" y="234" width="10" height="10" fill="#1A3C2E"/>
<rect x="264" y="234" width="10" height="10" fill="#1A3C2E"/>
<rect x="274" y="234" width="10" height="10" fill="#1A3C2E"/>
<rect x="294" y="234" width="10" height="10" fill="#1A3C2E"/>
<rect x="304" y="234" width="10" height="10" fill="#1A3C2E"/>
<rect x="64" y="244" width="10" height="10" fill="#1A3C2E"/>
<rect x="74" y="244" width="10" height="10" fill="#1A3C2E"/>
<rect x="84" y="244" width="10" height="10" fill="#1A3C2E"/>
<rect x="94" y="244" width="10" height="10" fill="#1A3C2E"/>
<rect x="104" y="244" width="10" height="10" fill="#1A3C2E"/>
<rect x="114" y="244" width="10" height="10" fill="#1A3C2E"/>
<rect x="124" y="244" width="10" height="10" fill="#1A3C2E"/>
<rect x="144" y="244" width="10" height="10" fill="#1A3C2E"/>
<rect x="164" y="244" width="10" height="10" fill="#1A3C2E"/>
<rect x="184" y="244" width="10" height="10" fill="#1A3C2E"/>
<rect x="194" y="244" width="10" height="10" fill="#1A3C2E"/>
<rect x="204" y="244" width="10" height="10" fill="#1A3C2E"/>
<rect x="214" y="244" width="10" height="10" fill="#1A3C2E"/>
<rect x="224" y="244" width="10" height="10" fill="#1A3C2E"/>
<rect x="244" y="244" width="10" height="10" fill="#1A3C2E"/>
<rect x="264" y="244" width="10" height="10" fill="#1A3C2E"/>
<rect x="274" y="244" width="10" height="10" fill="#1A3C2E"/>
<rect x="294" y="244" width="10" height="10" fill="#1A3C2E"/>
<rect x="304" y="244" width="10" height="10" fill="#1A3C2E"/>
<rect x="64" y="254" width="10" height="10" fill="#1A3C2E"/>
<rect x="124" y="254" width="10" height="10" fill="#1A3C2E"/>
<rect x="154" y="254" width="10" height="10" fill="#1A3C2E"/>
<rect x="174" y="254" width="10" height="10" fill="#1A3C2E"/>
<rect x="184" y="254" width="10" height="10" fill="#1A3C2E"/>
<rect x="224" y="254" width="10" height="10" fill="#1A3C2E"/>
<rect x="264" y="254" width="10" height="10" fill="#1A3C2E"/>
<rect x="274" y="254" width="10" height="10" fill="#1A3C2E"/>
<rect x="294" y="254" width="10" height="10" fill="#1A3C2E"/>
<rect x="64" y="264" width="10" height="10" fill="#1A3C2E"/>
<rect x="84" y="264" width="10" height="10" fill="#1A3C2E"/>
<rect x="94" y="264" width="10" height="10" fill="#1A3C2E"/>
<rect x="104" y="264" width="10" height="10" fill="#1A3C2E"/>
<rect x="124" y="264" width="10" height="10" fill="#1A3C2E"/>
<rect x="164" y="264" width="10" height="10" fill="#1A3C2E"/>
<rect x="214" y="264" width="10" height="10" fill="#1A3C2E"/>
<rect x="224" y="264" width="10" height="10" fill="#1A3C2E"/>
<rect x="234" y="264" width="10" height="10" fill="#1A3C2E"/>
<rect x="244" y="264" width="10" height="10" fill="#1A3C2E"/>
<rect x="254" y="264" width="10" height="10" fill="#1A3C2E"/>
<rect x="264" y="264" width="10" height="10" fill="#1A3C2E"/>
<rect x="274" y="264" width="10" height="10" fill="#1A3C2E"/>
<rect x="294" y="264" width="10" height="10" fill="#1A3C2E"/>
<rect x="64" y="274" width="10" height="10" fill="#1A3C2E"/>
<rect x="84" y="274" width="10" height="10" fill="#1A3C2E"/>
<rect x="94" y="274" width="10" height="10" fill="#1A3C2E"/>
<rect x="104" y="274" width="10" height="10" fill="#1A3C2E"/>
<rect x="124" y="274" width="10" height="10" fill="#1A3C2E"/>
<rect x="154" y="274" width="10" height="10" fill="#1A3C2E"/>
<rect x="174" y="274" width="10" height="10" fill="#1A3C2E"/>
<rect x="184" y="274" width="10" height="10" fill="#1A3C2E"/>
<rect x="214" y="274" width="10" height="10" fill="#1A3C2E"/>
<rect x="254" y="274" width="10" height="10" fill="#1A3C2E"/>
<rect x="264" y="274" width="10" height="10" fill="#1A3C2E"/>
<rect x="274" y="274" width="10" height="10" fill="#1A3C2E"/>
<rect x="284" y="274" width="10" height="10" fill="#1A3C2E"/>
<rect x="64" y="284" width="10" height="10" fill="#1A3C2E"/>
<rect x="84" y="284" width="10" height="10" fill="#1A3C2E"/>
<rect x="94" y="284" width="10" height="10" fill="#1A3C2E"/>
<rect x="104" y="284" width="10" height="10" fill="#1A3C2E"/>
<rect x="124" y="284" width="10" height="10" fill="#1A3C2E"/>
<rect x="144" y="284" width="10" height="10" fill="#1A3C2E"/>
<rect x="164" y="284" width="10" height="10" fill="#1A3C2E"/>
<rect x="184" y="284" width="10" height="10" fill="#1A3C2E"/>
<rect x="234" y="284" width="10" height="10" fill="#1A3C2E"/>
<rect x="244" y="284" width="10" height="10" fill="#1A3C2E"/>
<rect x="264" y="284" width="10" height="10" fill="#1A3C2E"/>
<rect x="304" y="284" width="10" height="10" fill="#1A3C2E"/>
<rect x="64" y="294" width="10" height="10" fill="#1A3C2E"/>
<rect x="124" y="294" width="10" height="10" fill="#1A3C2E"/>
<rect x="154" y="294" width="10" height="10" fill="#1A3C2E"/>
<rect x="174" y="294" width="10" height="10" fill="#1A3C2E"/>
<rect x="194" y="294" width="10" height="10" fill="#1A3C2E"/>
<rect x="244" y="294" width="10" height="10" fill="#1A3C2E"/>
<rect x="264" y="294" width="10" height="10" fill="#1A3C2E"/>
<rect x="274" y="294" width="10" height="10" fill="#1A3C2E"/>
<rect x="294" y="294" width="10" height="10" fill="#1A3C2E"/>
<rect x="64" y="304" width="10" height="10" fill="#1A3C2E"/>
<rect x="74" y="304" width="10" height="10" fill="#1A3C2E"/>
<rect x="84" y="304" width="10" height="10" fill="#1A3C2E"/>
<rect x="94" y="304" width="10" height="10" fill="#1A3C2E"/>
<rect x="104" y="304" width="10" height="10" fill="#1A3C2E"/>
<rect x="114" y="304" width="10" height="10" fill="#1A3C2E"/>
<rect x="124" y="304" width="10" height="10" fill="#1A3C2E"/>
<rect x="164" y="304" width="10" height="10" fill="#1A3C2E"/>
<rect x="184" y="304" width="10" height="10" fill="#1A3C2E"/>
<rect x="204" y="304" width="10" height="10" fill="#1A3C2E"/>
<rect x="214" y="304" width="10" height="10" fill="#1A3C2E"/>
<rect x="244" y="304" width="10" height="10" fill="#1A3C2E"/>
<rect x="254" y="304" width="10" height="10" fill="#1A3C2E"/>
<rect x="294" y="304" width="10" height="10" fill="#1A3C2E"/>
<rect x="304" y="304" width="10" height="10" fill="#1A3C2E"/>
<text x="189" y="386" font-family="Arial, Helvetica, sans-serif" font-size="16" font-weight="bold" fill="#1A3C2E" text-anchor="middle">Scan for Supplementary Data Files</text>
<text x="189" y="414" font-family="Courier New, Courier, monospace" font-size="15" font-weight="bold" fill="#000000" text-anchor="middle">bit.ly/corr-reg-spss</text>
<text x="189" y="438" font-family="Arial, Helvetica, sans-serif" font-size="11" fill="#666666" text-anchor="middle">github.com/kuldeeptyagivet/correlation-regression-spss</text>
</svg>